<svg id="Capa_1" enable-background="new 0 0 512 512" height="512" viewBox="0 0 512 512" width="512" xmlns="http://www.w3.org/2000/svg"><g><path d="m470.65 227.417h-109.767v-110c0-5.523-4.477-10-10-10h-67.05v-20.721c0-47.804-39.349-86.696-87.716-86.696s-87.717 38.892-87.717 86.696v20.721h-67.05c-5.523 0-10 4.477-10 10v330.033c0 35.593 29.283 64.55 65.276 64.55h318.749c35.993 0 65.276-28.957 65.276-64.55v-210.033c-.001-5.523-4.478-10-10.001-10zm-342.25-140.721c0-36.777 30.377-66.696 67.717-66.696s67.717 29.919 67.717 66.696v20.721h-135.434zm-77.05 360.754v-320.033h57.05v64.071c0 5.523 4.477 10 10 10s10-4.477 10-10v-64.071h135.434v64.071c0 5.523 4.477 10 10 10s10-4.477 10-10v-64.071h57.05v100h-109.767c-5.523 0-10 4.477-10 10v210.033c0 17.258 6.885 32.956 18.081 44.55h-142.573c-24.965 0-45.275-19.985-45.275-44.55zm409.3 0c0 24.565-20.311 44.55-45.276 44.55h-128.981c-24.965 0-45.276-19.985-45.276-44.55v-200.033h219.533z"/><path d="m350.883 372.74c35.39 0 64.181-28.792 64.181-64.181v-27.351c0-5.523-4.477-10-10-10s-10 4.477-10 10v27.351c0 24.361-19.82 44.181-44.181 44.181s-44.181-19.819-44.181-44.181v-27.351c0-5.523-4.477-10-10-10s-10 4.477-10 10v27.351c.001 35.389 28.792 64.181 64.181 64.181z"/></g></svg>